<svg xmlns="http://www.w3.org/2000/svg" fill="none" viewBox="0 0 100 100">
  <mask id="a" width="50" height="87" x="24" y="7" maskUnits="userSpaceOnUse" style="mask-type:alpha">
    <path fill="#fff" d="M73.79 9.126c-4.44-7.921-11.964 8.594-13.544 12.031C56.936 28.63 55.23 35.58 53.5 43.5c-1.956-2.092-4.995-6.609-6.5-9-1-2-2.822-1.165-1.742 1-1.053-1.794-1.258-4.5-4.8-6.646C31.354 28.032 23.721 43.654 25 51.5c3.503 11.204 15 1.5 17.866-3.516-.301 2.84-.301 6.8 2.558 8.146 3.076.87 4.44-1.196 6.395-3.139-1.128 11.733-2.558 23.913 1.355 35.421 1.805 6.576 8.2 8.22 8.878.15.903-10.014-1.58-19.803-4.59-29.219-.827-2.69-1.962-4.843-2.773-7.547 0-3.796.97-1.099 2.397.448 1.655 1.794 7.223 7.1 9.414 7.256-1.5-2-1.965-2.623-2.191-2.847-2.408-2.99-5.267-5.754-7.825-8.669 5.192-7.472 10.233-15.618 13.694-24.211 1.505-4.41 4.665-10.014 3.611-14.647Zm-30.397 31.76c-1.656 4.558-3.612 8.07-7.45 11.208-9.793 8.011-10.8-4.353-7.297-10.237 4.514-9.416 14.07-17.785 14.747-.972ZM52.5 49c-1.204 1.719-2.969 4.327-5 5-1.655.448-2.151-.71-2.452-2.204-.903-4.932.677-9.79 1.354-14.572C48.057 40.362 50.12 42.86 52 46c.376.822 1.027 2.103.5 3Zm2.63 7.13c3.235 9.79 5.417 20.027 4.514 30.265-.903 8.967-3.762 2.466-4.89-2.093C52.42 74.29 53 63.5 54.227 53.813c.301.748.677 1.794.903 2.317Zm16.327-44.986C69.877 21.755 62.052 36.7 55.43 45.07c1.354-7.024 3.31-13.825 6.019-20.475.226-1.345 10.157-21.074 10.007-13.451Z"/>
  </mask>
  <g mask="url(#a)">
    <path stroke="#000" stroke-linecap="round" stroke-width="2.5" d="M43.825 39.305C43.5 29 38 27 31 35.5 16.996 58.416 35 61 42.5 46c1.956-3.5 3-9 3-9-.621 5.273-1.675 8.98-1.675 13 0 6.629 4.175 7.9 10.675-1.6 6-7.5 14-20.9 17.5-32.9 2.48-8.5-1.5-11-8 1C55 31.5 50.76 59 52.3 78 53.804 96.547 63 97.5 61 79.5c-1.492-13.427-9-37-15.5-46.5 2.5 5.5 11.5 19 20 25.5" class="path1"/>
  </g>
</svg>